<svg version="1.1" id="Layer_1" xmlns="http://www.w3.org/2000/svg" xmlns:xlink="http://www.w3.org/1999/xlink" x="0px" y="0px"
	 width="100%" viewBox="0 0 1920 1080" enable-background="new 0 0 1920 1080" xml:space="preserve">
<path fill="#1F2937" opacity="1.000000" stroke="none" 
	d="
M1750.000000,1081.000000 
	C1166.666748,1081.000000 583.833557,1081.000000 1.000235,1081.000000 
	C1.000156,721.000183 1.000156,361.000336 1.000078,1.000380 
	C640.999695,1.000253 1280.999390,1.000253 1920.999268,1.000126 
	C1920.999512,360.999634 1920.999512,720.999268 1920.999756,1080.999512 
	C1864.166626,1081.000000 1807.333374,1081.000000 1750.000000,1081.000000 
M293.372040,573.054443 
	C306.646179,585.278381 321.986084,592.861816 340.295441,593.029785 
	C346.151520,593.083496 352.023376,591.875916 357.881226,591.187622 
	C370.182739,589.742188 380.267670,583.591187 389.268921,575.651184 
	C400.798889,565.480591 408.071228,552.971619 411.499634,537.629456 
	C414.695831,523.326355 413.783264,509.463226 408.260345,496.635529 
	C398.740417,474.524261 382.326324,459.589905 357.896759,454.440491 
	C333.852814,449.372345 312.951355,455.254181 294.993896,471.583679 
	C284.236969,481.365356 277.472290,493.512085 274.284149,507.940521 
	C271.618378,520.004761 272.246490,531.784668 275.442871,543.348206 
	C278.527313,554.506653 284.953796,564.061768 293.372040,573.054443 
M863.486694,587.003845 
	C867.070557,587.003845 870.654419,587.003845 874.759583,587.003845 
	C874.759583,568.988220 874.759583,551.654663 874.759583,533.041809 
	C876.244019,534.981506 876.957214,535.834167 877.585022,536.745605 
	C888.343079,552.363770 899.064697,568.007202 909.885742,583.581543 
	C910.834595,584.947205 912.364319,586.757385 913.721008,586.843933 
	C919.442871,587.208801 925.201355,586.998413 930.877136,586.998413 
	C930.877136,555.651550 930.877136,524.913269 930.877136,494.170532 
	C923.484009,494.170532 916.388123,494.170532 908.720215,494.170532 
	C908.720215,511.897003 908.720215,529.384949 908.720215,548.316101 
	C906.711792,545.494446 905.555603,543.929199 904.460632,542.322205 
	C894.250610,527.337402 884.078308,512.326721 873.802979,497.386871 
	C872.857544,496.012299 871.329407,494.175720 869.977295,494.092743 
	C864.075928,493.730682 858.139709,493.937073 852.288208,493.937073 
	C852.288208,525.288391 852.288208,556.020142 852.288208,587.003845 
	C855.886475,587.003845 859.195007,587.003845 863.486694,587.003845 
M994.395569,586.978516 
	C997.228882,586.036743 1000.170166,585.333801 1002.876282,584.110535 
	C1012.923950,579.568481 1018.197266,571.720398 1018.504211,560.650208 
	C1018.809204,549.650330 1013.626892,541.803589 1004.039795,537.012329 
	C999.635986,534.811462 994.765198,533.486206 990.022522,532.037964 
	C984.791138,530.440491 979.378967,529.407288 974.208130,527.649780 
	C970.746582,526.473206 968.139587,523.893188 968.449036,519.814392 
	C968.780334,515.447876 971.588867,512.828552 975.687622,511.995819 
	C987.056335,509.686005 992.995300,512.083679 996.422791,521.738098 
	C1003.226074,521.738098 1010.006836,521.738098 1017.031311,521.738098 
	C1017.368225,513.138184 1014.077637,506.334656 1007.822449,501.011017 
	C993.887939,489.151550 966.561768,489.954041 953.202820,502.380646 
	C942.179138,512.635010 941.107056,534.035095 957.546753,542.152649 
	C961.533691,544.121338 965.768005,545.683960 970.024841,546.988708 
	C976.202698,548.882263 982.563721,550.181213 988.732117,552.101562 
	C992.744263,553.350586 996.109924,555.880066 995.659424,560.665771 
	C995.210938,565.430908 991.675049,567.784180 987.379517,568.880615 
	C975.590332,571.889832 967.764771,567.654480 963.811462,556.240601 
	C956.908936,556.240601 949.996948,556.240601 942.841370,556.240601 
	C942.958374,568.884766 947.885620,578.390991 959.329834,583.775513 
	C970.276917,588.926086 981.847229,588.975891 994.395569,586.978516 
M772.994629,569.498779 
	C772.994629,575.260742 772.994629,581.022705 772.994629,586.696472 
	C794.997559,586.696472 816.393188,586.696472 837.775085,586.696472 
	C837.775085,580.626770 837.775085,574.868225 837.775085,568.791260 
	C823.758118,568.791260 809.967224,568.791260 795.847412,568.791260 
	C795.847412,562.406006 795.847412,556.336121 795.847412,549.537354 
	C808.791687,549.537354 821.647705,549.537354 834.388306,549.537354 
	C834.388306,543.044495 834.388306,537.281555 834.388306,531.057983 
	C821.322815,531.057983 808.569763,531.057983 795.861938,531.057983 
	C795.861938,524.522217 795.861938,518.466553 795.861938,511.892944 
	C810.088318,511.892944 823.974365,511.892944 837.690552,511.892944 
	C837.690552,505.612823 837.690552,499.862274 837.690552,494.252747 
	C815.982178,494.252747 794.590088,494.252747 772.994629,494.252747 
	C772.994629,519.221680 772.994629,543.860535 772.994629,569.498779 
M540.521057,531.147766 
	C539.858032,530.435852 538.641724,529.740356 538.619995,529.009399 
	C538.457886,523.542908 538.531860,518.069397 538.531860,512.113525 
	C552.806396,512.113525 566.711060,512.113525 580.638184,512.113525 
	C580.638184,505.747803 580.638184,499.878235 580.638184,494.124451 
	C558.992859,494.124451 537.715210,494.124451 516.351074,494.124451 
	C516.351074,525.179260 516.351074,556.030334 516.351074,586.642883 
	C538.105530,586.642883 559.502380,586.642883 580.703003,586.642883 
	C580.703003,580.535889 580.703003,574.795837 580.703003,568.703979 
	C566.632996,568.703979 552.862183,568.703979 538.805786,568.703979 
	C538.805786,562.283630 538.805786,556.224731 538.805786,549.615112 
	C551.792053,549.615112 564.523315,549.615112 577.338196,549.615112 
	C577.338196,543.174927 577.338196,537.291199 577.338196,531.157227 
	C565.152283,531.157227 553.335938,531.157227 540.521057,531.147766 
M1068.500000,587.003845 
	C1077.253418,587.003845 1086.006958,587.003845 1094.610596,587.003845 
	C1094.610596,580.539062 1094.610596,574.785095 1094.610596,568.541626 
	C1080.400391,568.541626 1066.508301,568.541626 1052.540894,568.541626 
	C1052.540894,562.101196 1052.540894,556.168213 1052.540894,549.701843 
	C1065.503174,549.701843 1078.244507,549.701843 1091.184326,549.701843 
	C1091.184326,543.259521 1091.184326,537.355225 1091.184326,531.015747 
	C1078.090698,531.015747 1065.316284,531.015747 1052.650024,531.015747 
	C1052.650024,524.502686 1052.650024,518.434753 1052.650024,511.887360 
	C1066.891357,511.887360 1080.795044,511.887360 1094.619873,511.887360 
	C1094.619873,505.651978 1094.619873,499.908234 1094.619873,494.258820 
	C1072.908691,494.258820 1051.512451,494.258820 1030.246094,494.258820 
	C1030.246094,525.324524 1030.246094,556.054260 1030.246094,587.003845 
	C1042.878052,587.003845 1055.189087,587.003845 1068.500000,587.003845 
M592.337097,586.106140 
	C600.486206,586.370483 608.634827,586.719971 616.785095,586.763611 
	C617.573486,586.767883 618.493469,584.949646 619.145935,583.854553 
	C623.143860,577.144043 627.064819,570.387817 631.050720,563.670044 
	C632.330139,561.513733 633.728821,559.428101 635.316956,556.925720 
	C640.878174,566.391479 645.948669,575.173889 651.219543,583.834290 
	C652.036621,585.177002 653.737854,586.811829 655.085938,586.863708 
	C662.672974,587.155518 670.277039,587.004456 678.777771,587.004456 
	C672.665710,577.153381 666.973145,568.059326 661.366089,558.912903 
	C657.559875,552.704163 650.941833,546.415466 650.955688,540.174438 
	C650.969543,533.895874 657.631287,527.630493 661.384644,521.362183 
	C666.723694,512.445801 672.067017,503.531982 677.824951,493.922119 
	C670.778809,493.922119 664.633667,494.279083 658.553528,493.803894 
	C654.063782,493.453003 651.751038,495.128235 649.690857,498.928925 
	C645.231201,507.156189 640.282471,515.118347 635.169678,523.807678 
	C629.624451,514.289429 624.592224,505.531891 619.397827,496.871521 
	C618.663208,495.646698 617.166077,494.095428 615.975830,494.055176 
	C608.409790,493.799103 600.830811,493.924957 592.518372,493.924957 
	C593.768555,496.038666 594.579590,497.435577 595.414795,498.817932 
	C603.066345,511.482971 610.657715,524.185303 618.430237,536.775635 
	C620.013489,539.340210 620.238586,541.178101 618.503418,543.906128 
	C609.760315,557.651550 601.295227,571.573792 592.337097,586.106140 
M689.481079,509.505493 
	C689.481079,535.256958 689.481079,561.008484 689.481079,586.702393 
	C697.306030,586.702393 704.547852,586.702393 712.255493,586.702393 
	C712.255493,577.013367 712.255493,567.623535 712.255493,557.965027 
	C719.041626,557.965027 725.369690,558.256897 731.662476,557.908997 
	C748.940430,556.953918 760.954956,545.216919 761.928345,528.683350 
	C762.983032,510.770569 753.382080,497.476227 735.901062,494.839172 
	C725.958618,493.339325 715.668396,494.110443 705.533447,493.934906 
	C700.288330,493.844055 695.040344,493.918884 689.481140,493.918884 
	C689.481140,499.227722 689.481140,503.868134 689.481079,509.505493 
M335.184967,613.334900 
	C343.155121,620.067749 352.263672,624.093811 362.485779,626.478699 
	C380.204468,630.612671 397.030365,628.390137 412.437958,619.407471 
	C435.638977,605.881287 448.305481,585.335144 448.075195,558.146606 
	C448.001373,549.433716 446.250427,540.413208 443.458862,532.143677 
	C441.080627,525.098511 436.106903,518.929382 431.815521,511.574310 
	C429.207733,576.648987 396.419464,609.527344 332.363220,611.716187 
	C333.245087,612.306519 333.885956,612.735596 335.184967,613.334900 
M1623.359253,548.100891 
	C1624.690796,548.100952 1626.070435,548.329224 1627.345703,548.061218 
	C1632.711548,546.933594 1635.177856,549.629639 1637.423950,554.205505 
	C1642.247681,564.032593 1647.716919,573.544006 1652.964233,583.161499 
	C1655.423218,587.668091 1655.467896,587.643738 1661.157837,586.212158 
	C1654.064209,573.088318 1646.999878,560.018555 1639.862671,546.813965 
	C1640.933350,546.313538 1641.519287,546.045654 1642.100220,545.767273 
	C1654.161499,539.988098 1659.256470,529.557434 1657.027710,515.209778 
	C1655.307739,504.136993 1646.777954,495.379578 1634.690186,494.385223 
	C1623.484009,493.463409 1612.142212,494.188660 1600.810547,494.188660 
	C1600.810547,525.153137 1600.810547,555.974731 1600.810547,586.749512 
	C1602.767700,586.749512 1604.354858,586.749512 1606.268311,586.749512 
	C1606.268311,573.876282 1606.268311,561.275574 1606.268311,548.100891 
	C1611.852905,548.100891 1617.124023,548.100891 1623.359253,548.100891 
M1251.633911,515.141602 
	C1249.132446,503.129913 1241.604492,495.662933 1229.677734,494.503204 
	C1218.355957,493.402344 1206.843018,494.266357 1195.283203,494.266357 
	C1195.283203,525.192688 1195.283203,555.934814 1195.283203,587.031250 
	C1197.243774,586.942505 1198.948364,586.865356 1200.997559,586.772644 
	C1200.997559,573.690308 1200.997559,561.096497 1200.997559,548.019775 
	C1209.821533,548.019775 1218.281616,547.931519 1226.735107,548.128052 
	C1227.828247,548.153381 1229.301270,549.422729 1229.897583,550.502686 
	C1235.680542,560.973938 1241.511475,571.428284 1246.887939,582.109314 
	C1248.912842,586.132141 1251.135376,588.227356 1255.967773,586.564941 
	C1248.834229,573.365051 1241.694946,560.154480 1234.551147,546.935730 
	C1248.820801,539.800537 1252.936279,532.253235 1251.633911,515.141602 
M1473.878174,554.654480 
	C1481.747681,564.343628 1489.612183,574.036804 1497.488647,583.720215 
	C1500.742676,587.720581 1500.952026,587.765869 1506.636353,586.194580 
	C1493.516113,570.091614 1480.427246,554.027100 1467.320923,537.941040 
	C1480.835815,523.183411 1493.922852,508.893036 1507.009888,494.602661 
	C1506.758667,494.140411 1506.507446,493.678131 1506.256348,493.215851 
	C1503.631958,494.076691 1500.193970,494.162689 1498.516235,495.924774 
	C1488.078369,506.886993 1478.047974,518.236755 1467.855469,529.433411 
	C1462.348267,535.483276 1456.787354,541.484314 1450.273682,548.570251 
	C1450.273682,529.400635 1450.273682,511.819916 1450.273682,494.141022 
	C1448.239990,494.141022 1446.633057,494.141022 1444.994507,494.141022 
	C1444.994507,525.142212 1444.994507,555.910645 1444.994507,586.824585 
	C1446.802124,586.824585 1448.420044,586.824585 1450.330933,586.824585 
	C1450.330933,577.985291 1450.267334,569.335205 1450.384766,560.687500 
	C1450.408203,558.961121 1450.608032,556.822632 1451.610718,555.598145 
	C1455.350708,551.030518 1459.458374,546.764160 1463.622314,542.170654 
	C1467.098633,546.406189 1470.258179,550.255920 1473.878174,554.654480 
M1294.812256,505.122742 
	C1284.994995,532.257812 1275.177734,559.392944 1265.358887,586.532410 
	C1269.443359,587.924683 1271.654297,586.863342 1272.939209,582.720764 
	C1275.247803,575.277832 1278.243530,568.049927 1280.637085,560.630493 
	C1281.524780,557.879089 1282.876221,557.096802 1285.634644,557.133179 
	C1296.458740,557.276245 1307.288818,557.332275 1318.109985,557.105957 
	C1321.359863,557.037964 1322.814087,558.175415 1323.805420,561.124756 
	C1326.708252,569.759949 1329.855103,578.313110 1332.874634,586.809204 
	C1335.024658,586.809204 1336.820557,586.809204 1338.943237,586.809204 
	C1328.005737,556.561951 1317.209595,526.590759 1306.214233,496.692810 
	C1305.745239,495.417480 1303.410645,494.075287 1301.984741,494.117096 
	C1300.565796,494.158722 1298.710693,495.621216 1297.915527,496.972046 
	C1296.590942,499.222443 1295.959473,501.880768 1294.812256,505.122742 
M1420.390137,523.021179 
	C1423.959106,523.299011 1422.456909,521.058289 1422.056396,519.523254 
	C1415.707520,495.192108 1386.183838,484.421509 1365.561890,499.005615 
	C1353.666382,507.418243 1348.804932,519.702332 1347.523682,533.662048 
	C1346.178101,548.323364 1348.276245,562.272583 1357.520630,574.319397 
	C1366.719482,586.306885 1382.362061,591.145447 1397.419189,586.936279 
	C1410.258911,583.346802 1420.858398,571.194458 1422.432251,558.139526 
	C1420.654785,558.139526 1418.895264,558.139526 1417.223999,558.139526 
	C1416.892090,558.994141 1416.618896,559.604248 1416.414795,560.236755 
	C1412.159302,573.424866 1403.287598,581.426208 1389.418335,582.625793 
	C1375.904419,583.794678 1365.442139,578.026733 1358.836670,566.122925 
	C1351.581909,553.049500 1351.322998,539.009155 1354.821899,524.925476 
	C1358.770996,509.029388 1370.229492,499.081146 1384.519653,498.112061 
	C1399.646973,497.086121 1412.988525,507.209106 1416.590088,520.745056 
	C1416.844360,521.700867 1418.544312,522.271973 1420.390137,523.021179 
M1525.055664,528.500000 
	C1525.055664,547.919189 1525.055664,567.338379 1525.055664,586.726257 
	C1543.087402,586.726257 1560.494751,586.726257 1578.070435,586.726257 
	C1577.974731,584.970032 1577.895264,583.510193 1577.797852,581.721069 
	C1562.141602,581.721069 1546.701172,581.721069 1531.190918,581.721069 
	C1531.190918,568.661377 1531.190918,555.947083 1531.190918,542.910522 
	C1545.639038,542.910522 1559.750977,542.910522 1573.909668,542.910522 
	C1573.909668,541.122864 1573.909668,539.666565 1573.909668,537.675781 
	C1559.544922,537.675781 1545.345703,537.675781 1531.150879,537.675781 
	C1531.150879,524.565979 1531.150879,511.993073 1531.150879,498.969971 
	C1546.520386,498.969971 1561.597046,498.969971 1576.690308,498.969971 
	C1576.690308,497.097687 1576.690308,495.692627 1576.690308,494.248657 
	C1559.394409,494.248657 1542.351196,494.248657 1525.055664,494.248657 
	C1525.055664,505.555298 1525.055664,516.527649 1525.055664,528.500000 
M1144.730957,532.500122 
	C1144.730957,521.434570 1144.730957,510.368988 1144.730957,499.022522 
	C1154.976807,499.022522 1164.420776,499.022522 1173.989136,499.022522 
	C1173.989136,497.172455 1173.989136,495.626312 1173.989136,494.179199 
	C1152.223267,494.179199 1130.794312,494.179199 1109.284668,494.179199 
	C1109.284668,495.861115 1109.284668,497.268311 1109.284668,499.233826 
	C1119.222778,499.233826 1128.945190,499.233826 1138.963379,499.233826 
	C1138.963379,528.724121 1138.963379,557.654663 1138.963379,586.702759 
	C1140.989990,586.702759 1142.690063,586.702759 1144.730957,586.702759 
	C1144.730957,568.760620 1144.730957,551.130371 1144.730957,532.500122 
z"/>
<path fill="#FAFAFA" opacity="1.000000" stroke="none" 
	d="
M293.095398,572.815063 
	C284.953796,564.061768 278.527313,554.506653 275.442871,543.348206 
	C272.246490,531.784668 271.618378,520.004761 274.284149,507.940521 
	C277.472290,493.512085 284.236969,481.365356 294.993896,471.583679 
	C312.951355,455.254181 333.852814,449.372345 357.896759,454.440491 
	C382.326324,459.589905 398.740417,474.524261 408.260345,496.635529 
	C413.783264,509.463226 414.695831,523.326355 411.499634,537.629456 
	C408.071228,552.971619 400.798889,565.480591 389.268921,575.651184 
	C380.267670,583.591187 370.182739,589.742188 357.881226,591.187622 
	C352.023376,591.875916 346.151520,593.083496 340.295441,593.029785 
	C321.986084,592.861816 306.646179,585.278381 293.095398,572.815063 
M338.094818,566.934448 
	C338.094818,566.934448 338.148285,566.893555 338.302460,567.807678 
	C338.320587,570.248901 338.074799,572.734863 338.477325,575.111023 
	C338.656494,576.168640 340.141907,577.004883 341.904114,578.067444 
	C343.678619,578.067444 345.453125,578.067444 348.065338,578.067444 
	C345.900543,569.944397 349.541565,566.361267 356.398773,563.523743 
	C365.318909,559.832581 367.482178,551.713440 367.412872,542.456665 
	C367.340179,532.747375 363.804596,525.539124 355.310760,520.729309 
	C351.774506,518.726807 348.428314,516.390015 344.981293,514.228271 
	C338.404205,510.103546 336.164124,505.459076 338.363953,498.291840 
	C339.064789,496.008453 341.588867,493.196655 343.696075,492.790161 
	C345.275696,492.485382 348.144958,495.290833 349.322327,497.350464 
	C350.911346,500.130157 351.427917,503.522858 352.471283,506.865906 
	C356.442474,506.865906 360.271820,507.031616 364.070312,506.762238 
	C365.171600,506.684113 366.877594,505.539581 367.127960,504.577301 
	C369.087067,497.047211 362.239655,483.684143 354.619202,481.320282 
	C350.088043,479.914734 349.206970,477.585541 349.330750,473.451233 
	C349.560059,465.792145 349.153534,465.588287 340.980469,466.853821 
	C340.980469,470.671722 340.980469,474.593018 340.980469,478.174225 
	C338.602936,479.249969 336.910553,480.254181 335.081665,480.805817 
	C319.057465,485.639313 318.031982,506.647308 324.349701,516.971558 
	C328.203430,523.269287 334.613312,525.823303 340.580536,529.035278 
	C345.680939,531.780762 349.760803,535.172913 351.164215,541.091553 
	C352.252533,545.681274 349.541595,551.268005 345.266083,552.900879 
	C341.057404,554.508240 338.454132,551.774780 336.748749,548.846680 
	C335.233398,546.244873 334.911469,542.947876 334.126465,539.091309 
	C329.196167,538.786621 324.224182,537.985291 319.353729,538.393982 
	C317.040100,538.588074 316.569641,541.299622 318.645874,544.154236 
	C320.167114,548.731628 321.688324,553.309021 323.319214,558.542114 
	C324.822815,559.763428 326.326385,560.984802 328.277771,562.533081 
	C328.792175,562.738342 329.306580,562.943604 329.853302,563.827637 
	C330.623138,564.105347 331.392944,564.383057 332.763214,564.833557 
	C333.176575,564.881714 333.589905,564.929810 334.157715,565.694275 
	C335.468506,566.085327 336.779297,566.476318 338.094818,566.934448 
z"/>
<path fill="#FDFDFD" opacity="1.000000" stroke="none" 
	d="
M862.995117,587.003845 
	C859.195007,587.003845 855.886475,587.003845 852.288208,587.003845 
	C852.288208,556.020142 852.288208,525.288391 852.288208,493.937073 
	C858.139709,493.937073 864.075928,493.730682 869.977295,494.092743 
	C871.329407,494.175720 872.857544,496.012299 873.802979,497.386871 
	C884.078308,512.326721 894.250610,527.337402 904.460632,542.322205 
	C905.555603,543.929199 906.711792,545.494446 908.720215,548.316101 
	C908.720215,529.384949 908.720215,511.897003 908.720215,494.170532 
	C916.388123,494.170532 923.484009,494.170532 930.877136,494.170532 
	C930.877136,524.913269 930.877136,555.651550 930.877136,586.998413 
	C925.201355,586.998413 919.442871,587.208801 913.721008,586.843933 
	C912.364319,586.757385 910.834595,584.947205 909.885742,583.581543 
	C899.064697,568.007202 888.343079,552.363770 877.585022,536.745605 
	C876.957214,535.834167 876.244019,534.981506 874.759583,533.041809 
	C874.759583,551.654663 874.759583,568.988220 874.759583,587.003845 
	C870.654419,587.003845 867.070557,587.003845 862.995117,587.003845 
z"/>
<path fill="#FCFCFC" opacity="1.000000" stroke="none" 
	d="
M993.968994,587.028198 
	C981.847229,588.975891 970.276917,588.926086 959.329834,583.775513 
	C947.885620,578.390991 942.958374,568.884766 942.841370,556.240601 
	C949.996948,556.240601 956.908936,556.240601 963.811462,556.240601 
	C967.764771,567.654480 975.590332,571.889832 987.379517,568.880615 
	C991.675049,567.784180 995.210938,565.430908 995.659424,560.665771 
	C996.109924,555.880066 992.744263,553.350586 988.732117,552.101562 
	C982.563721,550.181213 976.202698,548.882263 970.024841,546.988708 
	C965.768005,545.683960 961.533691,544.121338 957.546753,542.152649 
	C941.107056,534.035095 942.179138,512.635010 953.202820,502.380646 
	C966.561768,489.954041 993.887939,489.151550 1007.822449,501.011017 
	C1014.077637,506.334656 1017.368225,513.138184 1017.031311,521.738098 
	C1010.006836,521.738098 1003.226074,521.738098 996.422791,521.738098 
	C992.995300,512.083679 987.056335,509.686005 975.687622,511.995819 
	C971.588867,512.828552 968.780334,515.447876 968.449036,519.814392 
	C968.139587,523.893188 970.746582,526.473206 974.208130,527.649780 
	C979.378967,529.407288 984.791138,530.440491 990.022522,532.037964 
	C994.765198,533.486206 999.635986,534.811462 1004.039795,537.012329 
	C1013.626892,541.803589 1018.809204,549.650330 1018.504211,560.650208 
	C1018.197266,571.720398 1012.923950,579.568481 1002.876282,584.110535 
	C1000.170166,585.333801 997.228882,586.036743 993.968994,587.028198 
z"/>
<path fill="#FCFDFD" opacity="1.000000" stroke="none" 
	d="
M772.994629,568.999084 
	C772.994629,543.860535 772.994629,519.221680 772.994629,494.252747 
	C794.590088,494.252747 815.982178,494.252747 837.690552,494.252747 
	C837.690552,499.862274 837.690552,505.612823 837.690552,511.892944 
	C823.974365,511.892944 810.088318,511.892944 795.861938,511.892944 
	C795.861938,518.466553 795.861938,524.522217 795.861938,531.057983 
	C808.569763,531.057983 821.322815,531.057983 834.388306,531.057983 
	C834.388306,537.281555 834.388306,543.044495 834.388306,549.537354 
	C821.647705,549.537354 808.791687,549.537354 795.847412,549.537354 
	C795.847412,556.336121 795.847412,562.406006 795.847412,568.791260 
	C809.967224,568.791260 823.758118,568.791260 837.775085,568.791260 
	C837.775085,574.868225 837.775085,580.626770 837.775085,586.696472 
	C816.393188,586.696472 794.997559,586.696472 772.994629,586.696472 
	C772.994629,581.022705 772.994629,575.260742 772.994629,568.999084 
z"/>
<path fill="#FCFDFD" opacity="1.000000" stroke="none" 
	d="
M541.020264,531.152466 
	C553.335938,531.157227 565.152283,531.157227 577.338196,531.157227 
	C577.338196,537.291199 577.338196,543.174927 577.338196,549.615112 
	C564.523315,549.615112 551.792053,549.615112 538.805786,549.615112 
	C538.805786,556.224731 538.805786,562.283630 538.805786,568.703979 
	C552.862183,568.703979 566.632996,568.703979 580.703003,568.703979 
	C580.703003,574.795837 580.703003,580.535889 580.703003,586.642883 
	C559.502380,586.642883 538.105530,586.642883 516.351074,586.642883 
	C516.351074,556.030334 516.351074,525.179260 516.351074,494.124451 
	C537.715210,494.124451 558.992859,494.124451 580.638184,494.124451 
	C580.638184,499.878235 580.638184,505.747803 580.638184,512.113525 
	C566.711060,512.113525 552.806396,512.113525 538.531860,512.113525 
	C538.531860,518.069397 538.457886,523.542908 538.619995,529.009399 
	C538.641724,529.740356 539.858032,530.435852 541.020264,531.152466 
z"/>
<path fill="#FDFDFD" opacity="1.000000" stroke="none" 
	d="
M1068.000000,587.003845 
	C1055.189087,587.003845 1042.878052,587.003845 1030.246094,587.003845 
	C1030.246094,556.054260 1030.246094,525.324524 1030.246094,494.258820 
	C1051.512451,494.258820 1072.908691,494.258820 1094.619873,494.258820 
	C1094.619873,499.908234 1094.619873,505.651978 1094.619873,511.887360 
	C1080.795044,511.887360 1066.891357,511.887360 1052.650024,511.887360 
	C1052.650024,518.434753 1052.650024,524.502686 1052.650024,531.015747 
	C1065.316284,531.015747 1078.090698,531.015747 1091.184326,531.015747 
	C1091.184326,537.355225 1091.184326,543.259521 1091.184326,549.701843 
	C1078.244507,549.701843 1065.503174,549.701843 1052.540894,549.701843 
	C1052.540894,556.168213 1052.540894,562.101196 1052.540894,568.541626 
	C1066.508301,568.541626 1080.400391,568.541626 1094.610596,568.541626 
	C1094.610596,574.785095 1094.610596,580.539062 1094.610596,587.003845 
	C1086.006958,587.003845 1077.253418,587.003845 1068.000000,587.003845 
z"/>
<path fill="#FCFDFD" opacity="1.000000" stroke="none" 
	d="
M592.534790,585.770020 
	C601.295227,571.573792 609.760315,557.651550 618.503418,543.906128 
	C620.238586,541.178101 620.013489,539.340210 618.430237,536.775635 
	C610.657715,524.185303 603.066345,511.482971 595.414795,498.817932 
	C594.579590,497.435577 593.768555,496.038666 592.518372,493.924957 
	C600.830811,493.924957 608.409790,493.799103 615.975830,494.055176 
	C617.166077,494.095428 618.663208,495.646698 619.397827,496.871521 
	C624.592224,505.531891 629.624451,514.289429 635.169678,523.807678 
	C640.282471,515.118347 645.231201,507.156189 649.690857,498.928925 
	C651.751038,495.128235 654.063782,493.453003 658.553528,493.803894 
	C664.633667,494.279083 670.778809,493.922119 677.824951,493.922119 
	C672.067017,503.531982 666.723694,512.445801 661.384644,521.362183 
	C657.631287,527.630493 650.969543,533.895874 650.955688,540.174438 
	C650.941833,546.415466 657.559875,552.704163 661.366089,558.912903 
	C666.973145,568.059326 672.665710,577.153381 678.777771,587.004456 
	C670.277039,587.004456 662.672974,587.155518 655.085938,586.863708 
	C653.737854,586.811829 652.036621,585.177002 651.219543,583.834290 
	C645.948669,575.173889 640.878174,566.391479 635.316956,556.925720 
	C633.728821,559.428101 632.330139,561.513733 631.050720,563.670044 
	C627.064819,570.387817 623.143860,577.144043 619.145935,583.854553 
	C618.493469,584.949646 617.573486,586.767883 616.785095,586.763611 
	C608.634827,586.719971 600.486206,586.370483 592.534790,585.770020 
z"/>
<path fill="#FBFBFC" opacity="1.000000" stroke="none" 
	d="
M689.481079,509.007019 
	C689.481140,503.868134 689.481140,499.227722 689.481140,493.918884 
	C695.040344,493.918884 700.288330,493.844055 705.533447,493.934906 
	C715.668396,494.110443 725.958618,493.339325 735.901062,494.839172 
	C753.382080,497.476227 762.983032,510.770569 761.928345,528.683350 
	C760.954956,545.216919 748.940430,556.953918 731.662476,557.908997 
	C725.369690,558.256897 719.041626,557.965027 712.255493,557.965027 
	C712.255493,567.623535 712.255493,577.013367 712.255493,586.702393 
	C704.547852,586.702393 697.306030,586.702393 689.481079,586.702393 
	C689.481079,561.008484 689.481079,535.256958 689.481079,509.007019 
M719.450378,512.002014 
	C717.032349,512.002014 714.614258,512.002014 712.220703,512.002014 
	C712.220703,521.715881 712.220703,530.793152 712.220703,540.089966 
	C717.033447,540.089966 721.656555,540.386108 726.227112,540.022583 
	C733.638916,539.433228 738.261902,534.365112 738.680786,526.976013 
	C739.102722,519.532898 735.106140,514.101440 727.807678,512.579956 
	C725.400696,512.078125 722.868347,512.177551 719.450378,512.002014 
z"/>
<path fill="#F9F9F9" opacity="1.000000" stroke="none" 
	d="
M334.855896,613.249756 
	C333.885956,612.735596 333.245087,612.306519 332.363220,611.716187 
	C396.419464,609.527344 429.207733,576.648987 431.815521,511.574310 
	C436.106903,518.929382 441.080627,525.098511 443.458862,532.143677 
	C446.250427,540.413208 448.001373,549.433716 448.075195,558.146606 
	C448.305481,585.335144 435.638977,605.881287 412.437958,619.407471 
	C397.030365,628.390137 380.204468,630.612671 362.485779,626.478699 
	C352.263672,624.093811 343.155121,620.067749 334.855896,613.249756 
z"/>
<path fill="#F3F4F4" opacity="1.000000" stroke="none" 
	d="
M1622.877197,548.100891 
	C1617.124023,548.100891 1611.852905,548.100891 1606.268311,548.100891 
	C1606.268311,561.275574 1606.268311,573.876282 1606.268311,586.749512 
	C1604.354858,586.749512 1602.767700,586.749512 1600.810547,586.749512 
	C1600.810547,555.974731 1600.810547,525.153137 1600.810547,494.188660 
	C1612.142212,494.188660 1623.484009,493.463409 1634.690186,494.385223 
	C1646.777954,495.379578 1655.307739,504.136993 1657.027710,515.209778 
	C1659.256470,529.557434 1654.161499,539.988098 1642.100220,545.767273 
	C1641.519287,546.045654 1640.933350,546.313538 1639.862671,546.813965 
	C1646.999878,560.018555 1654.064209,573.088318 1661.157837,586.212158 
	C1655.467896,587.643738 1655.423218,587.668091 1652.964233,583.161499 
	C1647.716919,573.544006 1642.247681,564.032593 1637.423950,554.205505 
	C1635.177856,549.629639 1632.711548,546.933594 1627.345703,548.061218 
	C1626.070435,548.329224 1624.690796,548.100952 1622.877197,548.100891 
M1606.094482,531.466064 
	C1606.094482,535.082581 1606.094482,538.699097 1606.094482,542.802551 
	C1614.322876,542.802551 1622.091431,542.853882 1629.858398,542.767029 
	C1631.835205,542.744934 1633.836914,542.421692 1635.776367,542.001709 
	C1645.849487,539.820496 1651.902588,531.887085 1651.902588,520.985962 
	C1651.902588,510.208832 1645.695801,501.262421 1635.661377,500.173340 
	C1626.046021,499.129761 1616.228882,499.947998 1606.094482,499.947998 
	C1606.094482,509.923004 1606.094482,520.198608 1606.094482,531.466064 
z"/>
<path fill="#F5F5F6" opacity="1.000000" stroke="none" 
	d="
M1251.739990,515.571716 
	C1252.936279,532.253235 1248.820801,539.800537 1234.551147,546.935730 
	C1241.694946,560.154480 1248.834229,573.365051 1255.967773,586.564941 
	C1251.135376,588.227356 1248.912842,586.132141 1246.887939,582.109314 
	C1241.511475,571.428284 1235.680542,560.973938 1229.897583,550.502686 
	C1229.301270,549.422729 1227.828247,548.153381 1226.735107,548.128052 
	C1218.281616,547.931519 1209.821533,548.019775 1200.997559,548.019775 
	C1200.997559,561.096497 1200.997559,573.690308 1200.997559,586.772644 
	C1198.948364,586.865356 1197.243774,586.942505 1195.283203,587.031250 
	C1195.283203,555.934814 1195.283203,525.192688 1195.283203,494.266357 
	C1206.843018,494.266357 1218.355957,493.402344 1229.677734,494.503204 
	C1241.604492,495.662933 1249.132446,503.129913 1251.739990,515.571716 
M1205.635986,499.089172 
	C1204.182739,499.089172 1202.729492,499.089172 1201.087646,499.089172 
	C1201.087646,513.816467 1201.087646,528.059875 1201.087646,542.138672 
	C1210.752808,542.138672 1220.264893,542.920532 1229.589722,541.933167 
	C1240.322266,540.796692 1246.407471,532.478271 1246.455322,521.240112 
	C1246.503296,510.018250 1240.541138,501.668427 1230.002808,500.089355 
	C1222.328613,498.939362 1214.418213,499.365601 1205.635986,499.089172 
z"/>
<path fill="#F6F7F7" opacity="1.000000" stroke="none" 
	d="
M1473.647949,554.380005 
	C1470.258179,550.255920 1467.098633,546.406189 1463.622314,542.170654 
	C1459.458374,546.764160 1455.350708,551.030518 1451.610718,555.598145 
	C1450.608032,556.822632 1450.408203,558.961121 1450.384766,560.687500 
	C1450.267334,569.335205 1450.330933,577.985291 1450.330933,586.824585 
	C1448.420044,586.824585 1446.802124,586.824585 1444.994507,586.824585 
	C1444.994507,555.910645 1444.994507,525.142212 1444.994507,494.141022 
	C1446.633057,494.141022 1448.239990,494.141022 1450.273682,494.141022 
	C1450.273682,511.819916 1450.273682,529.400635 1450.273682,548.570251 
	C1456.787354,541.484314 1462.348267,535.483276 1467.855469,529.433411 
	C1478.047974,518.236755 1488.078369,506.886993 1498.516235,495.924774 
	C1500.193970,494.162689 1503.631958,494.076691 1506.256348,493.215851 
	C1506.507446,493.678131 1506.758667,494.140411 1507.009888,494.602661 
	C1493.922852,508.893036 1480.835815,523.183411 1467.320923,537.941040 
	C1480.427246,554.027100 1493.516113,570.091614 1506.636353,586.194580 
	C1500.952026,587.765869 1500.742676,587.720581 1497.488647,583.720215 
	C1489.612183,574.036804 1481.747681,564.343628 1473.647949,554.380005 
z"/>
<path fill="#F6F7F7" opacity="1.000000" stroke="none" 
	d="
M1294.924316,504.745056 
	C1295.959473,501.880768 1296.590942,499.222443 1297.915527,496.972046 
	C1298.710693,495.621216 1300.565796,494.158722 1301.984741,494.117096 
	C1303.410645,494.075287 1305.745239,495.417480 1306.214233,496.692810 
	C1317.209595,526.590759 1328.005737,556.561951 1338.943237,586.809204 
	C1336.820557,586.809204 1335.024658,586.809204 1332.874634,586.809204 
	C1329.855103,578.313110 1326.708252,569.759949 1323.805420,561.124756 
	C1322.814087,558.175415 1321.359863,557.037964 1318.109985,557.105957 
	C1307.288818,557.332275 1296.458740,557.276245 1285.634644,557.133179 
	C1282.876221,557.096802 1281.524780,557.879089 1280.637085,560.630493 
	C1278.243530,568.049927 1275.247803,575.277832 1272.939209,582.720764 
	C1271.654297,586.863342 1269.443359,587.924683 1265.358887,586.532410 
	C1275.177734,559.392944 1284.994995,532.257812 1294.924316,504.745056 
M1309.749390,521.876343 
	C1307.350586,515.310974 1304.951782,508.745636 1302.050537,500.805298 
	C1295.657227,518.702393 1289.780151,535.154053 1283.896362,551.624512 
	C1296.195068,551.624512 1308.036133,551.624512 1320.290039,551.624512 
	C1316.741699,541.656921 1313.354980,532.143250 1309.749390,521.876343 
z"/>
<path fill="#F5F5F6" opacity="1.000000" stroke="none" 
	d="
M1419.981079,523.021606 
	C1418.544312,522.271973 1416.844360,521.700867 1416.590088,520.745056 
	C1412.988525,507.209106 1399.646973,497.086121 1384.519653,498.112061 
	C1370.229492,499.081146 1358.770996,509.029388 1354.821899,524.925476 
	C1351.322998,539.009155 1351.581909,553.049500 1358.836670,566.122925 
	C1365.442139,578.026733 1375.904419,583.794678 1389.418335,582.625793 
	C1403.287598,581.426208 1412.159302,573.424866 1416.414795,560.236755 
	C1416.618896,559.604248 1416.892090,558.994141 1417.223999,558.139526 
	C1418.895264,558.139526 1420.654785,558.139526 1422.432251,558.139526 
	C1420.858398,571.194458 1410.258911,583.346802 1397.419189,586.936279 
	C1382.362061,591.145447 1366.719482,586.306885 1357.520630,574.319397 
	C1348.276245,562.272583 1346.178101,548.323364 1347.523682,533.662048 
	C1348.804932,519.702332 1353.666382,507.418243 1365.561890,499.005615 
	C1386.183838,484.421509 1415.707520,495.192108 1422.056396,519.523254 
	C1422.456909,521.058289 1423.959106,523.299011 1419.981079,523.021606 
z"/>
<path fill="#F9F9F9" opacity="1.000000" stroke="none" 
	d="
M1525.055664,528.000000 
	C1525.055664,516.527649 1525.055664,505.555298 1525.055664,494.248657 
	C1542.351196,494.248657 1559.394409,494.248657 1576.690308,494.248657 
	C1576.690308,495.692627 1576.690308,497.097687 1576.690308,498.969971 
	C1561.597046,498.969971 1546.520386,498.969971 1531.150879,498.969971 
	C1531.150879,511.993073 1531.150879,524.565979 1531.150879,537.675781 
	C1545.345703,537.675781 1559.544922,537.675781 1573.909668,537.675781 
	C1573.909668,539.666565 1573.909668,541.122864 1573.909668,542.910522 
	C1559.750977,542.910522 1545.639038,542.910522 1531.190918,542.910522 
	C1531.190918,555.947083 1531.190918,568.661377 1531.190918,581.721069 
	C1546.701172,581.721069 1562.141602,581.721069 1577.797852,581.721069 
	C1577.895264,583.510193 1577.974731,584.970032 1578.070435,586.726257 
	C1560.494751,586.726257 1543.087402,586.726257 1525.055664,586.726257 
	C1525.055664,567.338379 1525.055664,547.919189 1525.055664,528.000000 
z"/>
<path fill="#F6F7F7" opacity="1.000000" stroke="none" 
	d="
M1144.730957,533.000122 
	C1144.730957,551.130371 1144.730957,568.760620 1144.730957,586.702759 
	C1142.690063,586.702759 1140.989990,586.702759 1138.963379,586.702759 
	C1138.963379,557.654663 1138.963379,528.724121 1138.963379,499.233826 
	C1128.945190,499.233826 1119.222778,499.233826 1109.284668,499.233826 
	C1109.284668,497.268311 1109.284668,495.861115 1109.284668,494.179199 
	C1130.794312,494.179199 1152.223267,494.179199 1173.989136,494.179199 
	C1173.989136,495.626312 1173.989136,497.172455 1173.989136,499.022522 
	C1164.420776,499.022522 1154.976807,499.022522 1144.730957,499.022522 
	C1144.730957,510.368988 1144.730957,521.434570 1144.730957,533.000122 
z"/>
<path fill="#293340" opacity="1.000000" stroke="none" 
	d="
M334.003265,564.977905 
	C333.589905,564.929810 333.176575,564.881714 332.375610,564.449463 
	C331.265686,563.759888 330.543335,563.454346 329.820984,563.148865 
	C329.306580,562.943604 328.792175,562.738342 328.032623,562.024475 
	C326.261505,560.306030 324.735535,559.096252 323.209564,557.886414 
	C321.688324,553.309021 320.167114,548.731628 318.814331,543.313721 
	C320.250549,541.585205 321.464325,540.044067 322.796478,539.933899 
	C326.525757,539.625427 330.303894,539.908264 334.062775,539.957764 
	C334.911469,542.947876 335.233398,546.244873 336.748749,548.846680 
	C338.454132,551.774780 341.057404,554.508240 345.266083,552.900879 
	C349.541595,551.268005 352.252533,545.681274 351.164215,541.091553 
	C349.760803,535.172913 345.680939,531.780762 340.580536,529.035278 
	C334.613312,525.823303 328.203430,523.269287 324.349701,516.971558 
	C318.031982,506.647308 319.057465,485.639313 335.081665,480.805817 
	C336.910553,480.254181 338.602936,479.249969 340.980469,478.174225 
	C340.980469,474.593018 340.980469,470.671722 340.980469,466.853821 
	C349.153534,465.588287 349.560059,465.792145 349.330750,473.451233 
	C349.206970,477.585541 350.088043,479.914734 354.619202,481.320282 
	C362.239655,483.684143 369.087067,497.047211 367.127960,504.577301 
	C366.877594,505.539581 365.171600,506.684113 364.070312,506.762238 
	C360.271820,507.031616 356.442474,506.865906 352.471283,506.865906 
	C351.427917,503.522858 350.911346,500.130157 349.322327,497.350464 
	C348.144958,495.290833 345.275696,492.485382 343.696075,492.790161 
	C341.588867,493.196655 339.064789,496.008453 338.363953,498.291840 
	C336.164124,505.459076 338.404205,510.103546 344.981293,514.228271 
	C348.428314,516.390015 351.774506,518.726807 355.310760,520.729309 
	C363.804596,525.539124 367.340179,532.747375 367.412872,542.456665 
	C367.482178,551.713440 365.318909,559.832581 356.398773,563.523743 
	C349.541565,566.361267 345.900543,569.944397 348.065338,578.067444 
	C345.453125,578.067444 343.678619,578.067444 341.393921,577.558350 
	C340.833099,574.924438 341.084930,572.731445 340.626770,570.698486 
	C340.314850,569.314270 339.009430,568.153992 338.148285,566.893555 
	C338.148285,566.893555 338.094818,566.934448 338.053986,566.588257 
	C336.676514,565.820740 335.339874,565.399353 334.003265,564.977905 
z"/>
<path fill="#767C84" opacity="1.000000" stroke="none" 
	d="
M334.094604,539.524536 
	C330.303894,539.908264 326.525757,539.625427 322.796478,539.933899 
	C321.464325,540.044067 320.250549,541.585205 318.832642,542.889587 
	C316.569641,541.299622 317.040100,538.588074 319.353729,538.393982 
	C324.224182,537.985291 329.196167,538.786621 334.094604,539.524536 
z"/>
<path fill="#767C84" opacity="1.000000" stroke="none" 
	d="
M338.225372,567.350586 
	C339.009430,568.153992 340.314850,569.314270 340.626770,570.698486 
	C341.084930,572.731445 340.833099,574.924438 340.959106,577.495422 
	C340.141907,577.004883 338.656494,576.168640 338.477325,575.111023 
	C338.074799,572.734863 338.320587,570.248901 338.225372,567.350586 
z"/>
<path fill="#767C84" opacity="1.000000" stroke="none" 
	d="
M323.264404,558.214233 
	C324.735535,559.096252 326.261505,560.306030 327.808716,561.860962 
	C326.326385,560.984802 324.822815,559.763428 323.264404,558.214233 
z"/>
<path fill="#767C84" opacity="1.000000" stroke="none" 
	d="
M334.080505,565.336121 
	C335.339874,565.399353 336.676514,565.820740 338.051636,566.554688 
	C336.779297,566.476318 335.468506,566.085327 334.080505,565.336121 
z"/>
<path fill="#767C84" opacity="1.000000" stroke="none" 
	d="
M329.837158,563.488281 
	C330.543335,563.454346 331.265686,563.759888 332.075378,564.363098 
	C331.392944,564.383057 330.623138,564.105347 329.837158,563.488281 
z"/>
<path fill="#222C3A" opacity="1.000000" stroke="none" 
	d="
M719.921875,512.002014 
	C722.868347,512.177551 725.400696,512.078125 727.807678,512.579956 
	C735.106140,514.101440 739.102722,519.532898 738.680786,526.976013 
	C738.261902,534.365112 733.638916,539.433228 726.227112,540.022583 
	C721.656555,540.386108 717.033447,540.089966 712.220703,540.089966 
	C712.220703,530.793152 712.220703,521.715881 712.220703,512.002014 
	C714.614258,512.002014 717.032349,512.002014 719.921875,512.002014 
z"/>
<path fill="#222C3A" opacity="1.000000" stroke="none" 
	d="
M1606.094482,530.970154 
	C1606.094482,520.198608 1606.094482,509.923004 1606.094482,499.947998 
	C1616.228882,499.947998 1626.046021,499.129761 1635.661377,500.173340 
	C1645.695801,501.262421 1651.902588,510.208832 1651.902588,520.985962 
	C1651.902588,531.887085 1645.849487,539.820496 1635.776367,542.001709 
	C1633.836914,542.421692 1631.835205,542.744934 1629.858398,542.767029 
	C1622.091431,542.853882 1614.322876,542.802551 1606.094482,542.802551 
	C1606.094482,538.699097 1606.094482,535.082581 1606.094482,530.970154 
z"/>
<path fill="#222C3A" opacity="1.000000" stroke="none" 
	d="
M1206.124512,499.089172 
	C1214.418213,499.365601 1222.328613,498.939362 1230.002808,500.089355 
	C1240.541138,501.668427 1246.503296,510.018250 1246.455322,521.240112 
	C1246.407471,532.478271 1240.322266,540.796692 1229.589722,541.933167 
	C1220.264893,542.920532 1210.752808,542.138672 1201.087646,542.138672 
	C1201.087646,528.059875 1201.087646,513.816467 1201.087646,499.089172 
	C1202.729492,499.089172 1204.182739,499.089172 1206.124512,499.089172 
z"/>
<path fill="#222C3A" opacity="1.000000" stroke="none" 
	d="
M1309.858765,522.252930 
	C1313.354980,532.143250 1316.741699,541.656921 1320.290039,551.624512 
	C1308.036133,551.624512 1296.195068,551.624512 1283.896362,551.624512 
	C1289.780151,535.154053 1295.657227,518.702393 1302.050537,500.805298 
	C1304.951782,508.745636 1307.350586,515.310974 1309.858765,522.252930 
z"/>
</svg>