<svg version="1.1" id="Layer_1" xmlns="http://www.w3.org/2000/svg" xmlns:xlink="http://www.w3.org/1999/xlink" x="0px" y="0px"
	 width="100%" height="2500" viewBox="0 0 1012 506" enable-background="new 0 0 1012 506" xml:space="preserve">
<path fill="#2C2C32" opacity="1.000000" stroke="none" 
	d="
M676.000000,507.000000 
	C450.703674,507.000000 225.907333,507.000000 1.055501,507.000000 
	C1.055501,338.398102 1.055501,169.796188 1.055501,1.097136 
	C338.213043,1.097136 675.426086,1.097136 1012.819580,1.097136 
	C1012.819580,169.666504 1012.819580,338.333252 1012.819580,507.000000 
	C900.796082,507.000000 788.648071,507.000000 676.000000,507.000000 
M567.109436,398.383606 
	C567.270813,398.604034 567.485474,398.688568 568.523132,399.070862 
	C573.472534,398.803497 579.047668,399.927887 583.264832,398.031799 
	C603.320251,389.014771 622.996704,379.156067 642.828186,369.638885 
	C650.298279,366.054047 653.837097,359.900909 653.937927,351.914459 
	C654.105896,338.610626 653.888672,325.301971 653.962341,311.066406 
	C653.919067,280.042328 653.875732,249.018234 653.961914,217.065445 
	C653.974854,196.922775 653.989075,176.780121 654.000122,156.637451 
	C654.004822,148.039368 650.156555,141.808411 642.414917,138.077332 
	C623.146423,128.790894 603.889893,119.478203 584.552307,110.337341 
	C579.243164,107.827698 573.626099,106.551819 567.263733,109.504761 
	C565.520874,110.758003 563.635010,111.853859 562.056885,113.288322 
	C541.648499,131.839157 521.262695,150.414902 500.915375,169.032623 
	C485.598267,183.047729 470.344727,197.132294 454.470428,211.463608 
	C451.940735,213.886047 449.411041,216.308472 446.224213,218.672867 
	C429.768036,206.239899 413.328369,193.784912 396.847351,181.384979 
	C390.427124,176.554581 385.373352,176.747314 379.377441,182.010345 
	C374.871460,185.965530 370.469421,190.039307 366.027374,194.067169 
	C357.979095,201.364975 357.814728,208.391861 365.717072,215.677765 
	C376.002228,225.160522 386.459900,234.456589 396.712982,243.973404 
	C400.435638,247.428741 403.783295,251.288101 406.641174,255.218735 
	C392.615631,267.954865 378.511841,280.606323 364.599640,293.465027 
	C358.240784,299.342346 358.375854,306.567322 364.662628,312.605255 
	C368.975677,316.747589 373.448273,320.728333 377.935211,324.684113 
	C385.844025,331.656738 389.973389,331.773438 398.535675,325.295959 
	C412.984497,314.365234 427.387024,303.373138 441.859894,292.474457 
	C443.396729,291.317139 445.272919,290.610413 447.498505,290.162292 
	C450.518829,292.845795 453.539185,295.529297 456.919586,298.794067 
	C476.074585,316.297821 495.197845,333.836456 514.394226,351.294708 
	C530.877563,366.285614 547.444519,381.184631 564.191772,396.584015 
	C564.495178,396.718536 564.798523,396.853088 565.460266,397.435394 
	C565.982239,397.642822 566.504211,397.850220 566.977051,398.008636 
	C566.977051,398.008636 566.930176,398.059753 567.109436,398.383606 
z"/>
<path fill="#0089D2" opacity="1.000000" stroke="none" 
	d="
M456.559540,298.212769 
	C453.539185,295.529297 450.518829,292.845795 447.062134,289.668945 
	C439.851929,283.055481 433.161224,276.839966 426.279694,270.843445 
	C420.062195,265.425629 413.636108,260.247162 407.302032,254.963120 
	C403.783295,251.288101 400.435638,247.428741 396.712982,243.973404 
	C386.459900,234.456589 376.002228,225.160522 365.717072,215.677765 
	C357.814728,208.391861 357.979095,201.364975 366.027374,194.067169 
	C370.469421,190.039307 374.871460,185.965530 379.377441,182.010345 
	C385.373352,176.747314 390.427124,176.554581 396.847351,181.384979 
	C413.328369,193.784912 429.768036,206.239899 446.749695,218.992615 
	C461.539917,230.255417 475.795654,241.210220 490.094879,252.107986 
	C490.839325,252.675369 491.954254,252.756622 492.961060,253.402557 
	C494.747253,255.258392 496.388153,256.881165 498.203583,258.276855 
	C514.935791,271.140259 531.698242,283.964386 547.955444,296.826172 
	C520.595032,296.901978 493.730865,296.908966 466.867432,297.053864 
	C463.429474,297.072388 459.995422,297.808899 456.559540,298.212769 
z"/>
<path fill="#0078B9" opacity="1.000000" stroke="none" 
	d="
M455.062897,211.185928 
	C470.344727,197.132294 485.598267,183.047729 500.915375,169.032623 
	C521.262695,150.414902 541.648499,131.839157 562.056885,113.288322 
	C563.635010,111.853859 565.520874,110.758003 567.906006,109.572815 
	C577.090210,111.332260 580.370667,114.017616 580.440552,121.170311 
	C580.658203,143.419174 580.474304,165.671951 580.094360,188.030136 
	C578.237732,189.167953 576.693726,190.146378 575.234314,191.238007 
	C562.444885,200.804291 549.670593,210.390717 536.502380,219.850281 
	C533.307861,219.486633 530.503418,219.043823 527.697449,219.033539 
	C509.071838,218.965164 490.444641,219.110046 471.820709,218.918610 
	C465.241882,218.850983 458.796906,217.764465 455.062897,211.185928 
z"/>
<path fill="#25AFF3" opacity="1.000000" stroke="none" 
	d="
M580.446106,187.923218 
	C580.474304,165.671951 580.658203,143.419174 580.440552,121.170311 
	C580.370667,114.017616 577.090210,111.332260 568.213928,109.474052 
	C573.626099,106.551819 579.243164,107.827698 584.552307,110.337341 
	C603.889893,119.478203 623.146423,128.790894 642.414917,138.077332 
	C650.156555,141.808411 654.004822,148.039368 654.000122,156.637451 
	C653.989075,176.780121 653.974854,196.922775 653.607544,217.715973 
	C652.712830,218.982788 651.762146,219.558060 651.695801,220.221741 
	C651.029358,226.888718 646.478210,227.028381 641.272095,227.067993 
	C621.013794,227.222122 600.757690,227.646576 580.505798,227.504059 
	C580.489258,213.999512 580.467651,200.961365 580.446106,187.923218 
z"/>
<path fill="#22A7F2" opacity="1.000000" stroke="none" 
	d="
M580.500732,227.970474 
	C600.757690,227.646576 621.013794,227.222122 641.272095,227.067993 
	C646.478210,227.028381 651.029358,226.888718 651.695801,220.221741 
	C651.762146,219.558060 652.712830,218.982788 653.542786,218.180328 
	C653.875732,249.018234 653.919067,280.042328 653.539673,311.647308 
	C648.066284,312.740967 643.020325,313.635864 637.963928,313.698608 
	C618.812927,313.936279 599.658508,313.904205 580.507568,313.506531 
	C580.506714,284.683472 580.503723,256.326965 580.500732,227.970474 
z"/>
<path fill="#0080CE" opacity="1.000000" stroke="none" 
	d="
M456.739563,298.503418 
	C459.995422,297.808899 463.429474,297.072388 466.867432,297.053864 
	C493.730865,296.908966 520.595032,296.901978 548.268921,296.925171 
	C559.064514,304.657745 569.050171,312.317535 578.796631,320.271118 
	C578.070251,321.950012 577.256226,323.310059 577.147827,324.724243 
	C576.350098,335.131775 576.003845,345.582794 574.913879,355.956879 
	C573.538025,369.052002 575.690857,383.167480 564.973511,393.864288 
	C564.430054,394.406708 564.298096,395.361481 563.974548,396.124268 
	C547.444519,381.184631 530.877563,366.285614 514.394226,351.294708 
	C495.197845,333.836456 476.074585,316.297821 456.739563,298.503418 
z"/>
<path fill="#209FF0" opacity="1.000000" stroke="none" 
	d="
M580.505371,313.973022 
	C599.658508,313.904205 618.812927,313.936279 637.963928,313.698608 
	C643.020325,313.635864 648.066284,312.740967 653.475342,312.111755 
	C653.888672,325.301971 654.105896,338.610626 653.937927,351.914459 
	C653.837097,359.900909 650.298279,366.054047 642.828186,369.638885 
	C622.996704,379.156067 603.320251,389.014771 583.264832,398.031799 
	C579.047668,399.927887 573.472534,398.803497 568.245483,398.751770 
	C567.967896,398.432678 568.119995,398.182190 568.513550,398.142090 
	C577.330078,396.896271 580.700439,393.444397 580.730896,384.918213 
	C580.808289,363.258759 580.629578,341.598358 580.532776,319.557983 
	C580.509827,317.442749 580.507568,315.707886 580.505371,313.973022 
z"/>
<path fill="#006DB0" opacity="1.000000" stroke="none" 
	d="
M406.971619,255.090927 
	C413.636108,260.247162 420.062195,265.425629 426.279694,270.843445 
	C433.161224,276.839966 439.851929,283.055481 446.808716,289.435120 
	C445.272919,290.610413 443.396729,291.317139 441.859894,292.474457 
	C427.387024,303.373138 412.984497,314.365234 398.535675,325.295959 
	C389.973389,331.773438 385.844025,331.656738 377.935211,324.684113 
	C373.448273,320.728333 368.975677,316.747589 364.662628,312.605255 
	C358.375854,306.567322 358.240784,299.342346 364.599640,293.465027 
	C378.511841,280.606323 392.615631,267.954865 406.971619,255.090927 
z"/>
<path fill="#0072B4" opacity="1.000000" stroke="none" 
	d="
M454.766663,211.324768 
	C458.796906,217.764465 465.241882,218.850983 471.820709,218.918610 
	C490.444641,219.110046 509.071838,218.965164 527.697449,219.033539 
	C530.503418,219.043823 533.307861,219.486633 536.302979,220.113098 
	C532.706238,223.426071 528.966492,226.418594 525.123779,229.272491 
	C514.404236,237.233780 503.642059,245.137650 492.896698,253.064194 
	C491.954254,252.756622 490.839325,252.675369 490.094879,252.107986 
	C475.795654,241.210220 461.539917,230.255417 447.078308,219.021637 
	C449.411041,216.308472 451.940735,213.886047 454.766663,211.324768 
z"/>
<path fill="#0075CA" opacity="1.000000" stroke="none" 
	d="
M580.553467,319.938354 
	C580.629578,341.598358 580.808289,363.258759 580.730896,384.918213 
	C580.700439,393.444397 577.330078,396.896271 568.216431,398.110291 
	C567.327209,398.098938 567.128723,398.079346 566.930176,398.059753 
	C566.930176,398.059753 566.977051,398.008636 566.761230,397.897278 
	C566.064270,397.519806 565.583130,397.253723 565.101929,396.987610 
	C564.798523,396.853088 564.495178,396.718536 564.083130,396.354126 
	C564.298096,395.361481 564.430054,394.406708 564.973511,393.864288 
	C575.690857,383.167480 573.538025,369.052002 574.913879,355.956879 
	C576.003845,345.582794 576.350098,335.131775 577.147827,324.724243 
	C577.256226,323.310059 578.070251,321.950012 579.051575,320.256775 
	C579.881592,319.945251 580.217529,319.941803 580.553467,319.938354 
z"/>
<path fill="#0080CE" opacity="1.000000" stroke="none" 
	d="
M565.281128,397.211487 
	C565.583130,397.253723 566.064270,397.519806 566.785828,397.921753 
	C566.504211,397.850220 565.982239,397.642822 565.281128,397.211487 
z"/>
<path fill="#0080CE" opacity="1.000000" stroke="none" 
	d="
M567.019775,398.221680 
	C567.128723,398.079346 567.327209,398.098938 567.822876,398.150391 
	C568.119995,398.182190 567.967896,398.432678 567.860718,398.534973 
	C567.485474,398.688568 567.270813,398.604034 567.019775,398.221680 
z"/>
<path fill="#2C2C33" opacity="1.000000" stroke="none" 
	d="
M580.532776,319.557983 
	C580.217529,319.941803 579.881592,319.945251 579.290771,319.963013 
	C569.050171,312.317535 559.064514,304.657745 548.765381,296.898956 
	C531.698242,283.964386 514.935791,271.140259 498.203583,258.276855 
	C496.388153,256.881165 494.747253,255.258392 492.961060,253.402557 
	C503.642059,245.137650 514.404236,237.233780 525.123779,229.272491 
	C528.966492,226.418594 532.706238,223.426071 536.692383,220.234009 
	C549.670593,210.390717 562.444885,200.804291 575.234314,191.238007 
	C576.693726,190.146378 578.237732,189.167953 580.094360,188.030136 
	C580.467651,200.961365 580.489258,213.999512 580.505798,227.504059 
	C580.503723,256.326965 580.506714,284.683472 580.507568,313.506500 
	C580.507568,315.707886 580.509827,317.442749 580.532776,319.557983 
z"/>
</svg>